<svg width="93" height="106" viewBox="0 0 93 106" fill="none" xmlns="http://www.w3.org/2000/svg">
<path d="M42.0318 90.1981C41.1275 89.8987 40.0804 90.0466 39.1289 90.6007C38.3954 91.0247 37.8337 91.6381 37.35 92.1565C37.2901 92.2184 37.2537 92.2845 37.2034 92.3603C37.0644 92.4562 36.9392 92.5426 36.8386 92.6941C35.7583 94.2809 35.6578 96.4845 36.5889 98.1609C37.0906 99.0664 37.8373 99.7619 38.6956 100.114C39.2945 100.357 39.9663 100.468 40.7109 100.447C41.8016 100.392 42.8362 100.047 43.6981 99.4525C44.1707 99.1264 44.5954 98.7307 44.939 98.2473C45.9891 96.825 46.1929 94.9196 45.4656 93.3898C44.9854 92.3668 44.1629 91.621 43.3467 90.9735C42.9765 90.6749 42.5593 90.3677 42.0318 90.1981ZM43.4569 94.345C43.835 95.1307 43.7063 96.1635 43.1518 96.936C42.6016 97.6851 41.6255 98.1739 40.6192 98.2322C40.2025 98.2529 39.8597 98.2022 39.5672 98.0757C39.1615 97.9042 38.7999 97.5586 38.5443 97.0988C38.0137 96.1516 38.0915 94.8666 38.6815 93.967C38.6954 93.9574 38.7136 93.9243 38.7179 93.9008C38.8013 93.8433 38.8986 93.7761 38.9724 93.7047C39.3962 93.2481 39.806 92.8012 40.2561 92.5316C40.6228 92.3196 41.0289 92.224 41.3022 92.3227C41.4955 92.3946 41.7089 92.5552 41.9414 92.7435C42.5442 93.2305 43.1523 93.7548 43.4291 94.3642L43.4569 94.345Z" fill="#CFB7B7"/>
<path d="M44.9804 75.9738C46.0337 75.9242 47.0683 75.5796 47.9024 75.0041C48.375 74.6779 48.7858 74.2918 49.1112 73.8415C50.1431 72.4523 50.3287 70.58 49.6302 69.0919C49.1595 68.0828 48.3563 67.3648 47.5497 66.7312C47.189 66.4465 46.7718 66.1393 46.2583 65.9601C45.3774 65.665 44.3443 65.8034 43.4162 66.3617C42.7062 66.79 42.1627 67.3703 41.6791 67.8887C41.6191 67.9506 41.5731 68.0029 41.5367 68.0691C41.4116 68.1554 41.2726 68.2513 41.1858 68.3933C40.1238 69.947 40.0223 72.0897 40.9341 73.7383C41.4167 74.616 42.1538 75.2976 42.9982 75.6589C43.5832 75.9119 44.2454 76.009 44.9665 75.9834L44.9804 75.9738ZM43.033 69.6427C43.033 69.6427 43.0608 69.6235 43.0695 69.5765C43.1529 69.519 43.2363 69.4614 43.324 69.3804C43.7338 68.9334 44.1158 68.5056 44.5616 68.2595C44.9145 68.0571 45.2927 67.9808 45.5564 68.0656C45.7401 68.1235 45.9535 68.2841 46.1765 68.4586C46.8551 68.9958 47.3639 69.4656 47.6258 70.0236C47.9847 70.7815 47.8646 71.7673 47.3283 72.5067C46.7963 73.2227 45.8715 73.6967 44.893 73.7358C44.4998 73.7608 44.157 73.7101 43.888 73.5879C43.5058 73.4207 43.1538 73.089 42.9078 72.6432C42.406 71.7376 42.4517 70.4953 43.0469 69.6331L43.033 69.6427Z" fill="#CFB7B7"/>
<path d="M60.893 89.8443C59.8755 89.4999 58.6649 89.6786 57.5882 90.3189C56.7297 90.8293 56.0759 91.5472 55.5002 92.1702C55.4264 92.2417 55.3622 92.327 55.3215 92.4167C55.159 92.5083 55.0156 92.6277 54.915 92.7793C53.6656 94.6265 53.5378 97.1772 54.6233 99.1369C55.1975 100.177 56.0583 100.979 57.049 101.403C57.7376 101.687 58.5268 101.82 59.3835 101.783C60.657 101.725 61.8636 101.303 62.8645 100.612C63.4206 100.228 63.9191 99.761 64.3088 99.2254C65.5098 97.5757 65.7557 95.3745 64.9166 93.5935C64.3587 92.3984 63.389 91.5285 62.4256 90.7568C61.9796 90.4079 61.5101 90.0547 60.9026 89.8582L60.893 89.8443ZM62.8984 94.5348C63.3786 95.5578 63.2174 96.9003 62.5023 97.8863C61.8054 98.8391 60.56 99.4728 59.2727 99.5403C58.7481 99.5534 58.2835 99.5046 57.9014 99.3374C57.373 99.1069 56.8972 98.6554 56.5595 98.0471C55.8841 96.8304 55.9561 95.1801 56.7483 94.0383C56.79 94.0095 56.7986 93.9625 56.8168 93.9294C56.9141 93.8623 57.0253 93.7855 57.127 93.6949C57.6288 93.1434 58.1402 92.6058 58.7155 92.2499C59.2212 91.9419 59.7726 91.8488 60.1729 91.9829C60.4367 92.0677 60.7354 92.2925 61.0203 92.5268C61.8888 93.2204 62.5309 93.8238 62.8802 94.5679L62.8984 94.5348Z" fill="#CFB7B7"/>
<path d="M33.0272 88.4496C33.4303 88.1714 33.7716 87.8333 34.0606 87.4492C34.9363 86.2498 35.1075 84.6542 34.4963 83.3521C34.0842 82.4873 33.4186 81.8795 32.7496 81.3562C32.4316 81.1036 32.0902 80.8467 31.6332 80.69C30.856 80.426 29.935 80.5486 29.1416 81.0345C28.529 81.3957 28.0731 81.8949 27.6676 82.3184C27.612 82.3567 27.5895 82.4133 27.5574 82.456C27.4323 82.5423 27.3307 82.633 27.2482 82.7514C26.3371 84.0778 26.2542 85.9204 27.0404 87.3274C27.4602 88.0843 28.0927 88.6739 28.824 88.9901C29.3193 89.2024 29.8971 89.2962 30.5338 89.2673C31.4418 89.2152 32.3086 88.9249 33.0315 88.4261L33.0272 88.4496ZM29.105 84.0148C29.1745 83.9668 29.244 83.9188 29.3083 83.8335C29.6399 83.4815 29.9438 83.1486 30.2731 82.9419C30.5052 82.8023 30.7573 82.7514 30.9079 82.7912C31.035 82.8266 31.2249 82.9829 31.3529 83.0792C31.8085 83.442 32.2694 83.8422 32.4685 84.2795C32.7208 84.8236 32.6342 85.5605 32.2446 86.0962C31.841 86.6414 31.144 86.9993 30.409 87.0345C30.1141 87.0533 29.8792 87.0102 29.6764 86.9244C29.4169 86.8161 29.1599 86.5626 28.9766 86.2375C28.6049 85.5501 28.6511 84.6358 29.0858 83.987L29.105 84.0148Z" fill="#CFB7B7"/>
<path d="M79.8249 12.0359C79.0648 9.62591 78.1551 7.23704 77.0829 4.93979C76.9275 4.59559 76.6052 4.3665 76.2389 4.31146C75.8726 4.25642 75.4953 4.39365 75.2374 4.6742C73.7971 6.30426 72.4805 8.05414 71.2397 9.85435C71.152 9.9354 71.0696 10.0538 71.0245 10.167C61.0622 24.9628 57.6445 45.585 62.3888 63.6121C55.9392 54.9497 48.8466 47.6749 40.3911 41.0124C42.1387 33.9989 41.4251 26.3034 38.2856 19.2558C35.3155 12.5428 30.2772 6.57982 23.7338 2.00426C22.8716 1.40901 22.0051 0.837262 21.0959 0.233398C21.0959 0.233398 21.0628 0.215189 21.0489 0.22478C20.9165 0.15194 20.7703 0.0886918 20.6154 0.0724338C20.6154 0.0724338 20.5876 0.0916189 20.5684 0.0638158C20.437 0.0518656 20.2875 0.0730021 20.1571 0.121942C20.1432 0.131535 20.1197 0.127225 20.0962 0.122917C20.0823 0.132511 20.0545 0.151696 20.0406 0.161288C19.9989 0.190066 19.9519 0.181448 19.9102 0.210227C19.8546 0.248599 19.8085 0.300873 19.7625 0.353145C19.7208 0.381924 19.6791 0.410703 19.647 0.453383C19.555 0.557929 19.496 0.680684 19.4467 0.817343C19.4467 0.817343 19.4189 0.83653 19.4242 0.873924C18.0179 6.0922 18.8614 11.9538 22.0998 19.323C25.9896 28.1717 29.9055 36.0174 38.477 42.3127C41.2713 44.4886 43.8936 46.7423 46.4046 49.0727C43.5486 47.4319 40.6058 45.9329 37.5997 44.5803C30.7154 41.5328 24.9418 39.9762 19.4046 39.7135C12.7137 39.385 6.55702 41.1093 1.88472 44.5387C1.85692 44.5579 1.84301 44.5675 1.81521 44.5867C1.75961 44.625 1.704 44.6634 1.64839 44.7018C1.50938 44.7977 1.37036 44.8936 1.23135 44.9896C0.819586 45.3147 0.692683 45.8743 0.920554 46.3532C2.70848 50.0445 6.63863 52.0524 10.2277 53.5362C15.557 55.7278 21.123 57.4892 26.7377 58.7861C34.7178 60.626 46.3263 60.5571 53.444 56.2406C57.007 60.1845 60.3494 64.4038 63.5299 69.0426C65.8322 72.3789 68.0348 75.9277 70.1607 79.3653C71.9211 82.2138 73.7145 85.0804 75.5871 87.913C72.52 85.9663 69.104 84.4656 65.467 83.5072C59.7223 81.9922 53.4543 81.7412 46.8458 82.7513C46.2336 82.8455 45.8257 83.4142 45.9199 84.0265C46.014 84.6387 46.5827 85.0465 47.195 84.9524C53.4904 83.9942 59.4582 84.2265 64.9158 85.6524C71.1592 87.2952 76.774 90.6441 80.7667 95.0919C83.6837 98.7838 86.9109 102.241 90.6356 105.171C91.0293 105.474 91.573 105.488 91.9623 105.22C92.0457 105.162 92.143 105.095 92.1976 104.996C92.5787 104.507 92.4879 103.81 92.0131 103.42C88.4399 100.591 85.3225 97.263 82.4962 93.6727L82.4674 93.631C78.6367 88.7637 75.3087 83.4057 72.0437 78.1686C69.9998 74.8796 67.8888 71.4933 65.6815 68.2351C67.081 68.1517 68.4598 67.6518 69.7804 66.7405C71.5598 65.5126 73.2388 63.5742 74.7244 60.9689C83.1377 46.2776 84.913 28.1226 79.8388 12.0263L79.8249 12.0359ZM77.6747 12.6373C77.5033 39.6588 71.4224 54.0129 67.5018 60.4943C70.341 49.3826 75.5868 27.0679 76.7846 10.0091C77.1123 10.8706 77.3983 11.7609 77.6747 12.6373ZM65.5136 59.219C65.8731 48.3204 67.3052 26.8727 72.9853 11.1944C73.5163 10.4176 74.0473 9.6407 74.6071 8.90555C73.5852 25.5352 68.4217 47.7315 65.504 59.2051L65.5136 59.219ZM67.9861 20.2464C64.7879 33.5143 63.6983 48.2616 63.3479 57.389C61.2968 44.8706 63.0091 31.561 67.9861 20.2464ZM36.2482 20.1693C38.455 25.1516 39.3741 30.4685 38.9925 35.5954C35.7181 22.4641 30.3393 12.7959 26.3712 6.95629C30.6768 10.7572 34.0519 15.2617 36.2343 20.1789L36.2482 20.1693ZM36.4026 34.4891C31.2565 25.0093 26.8191 14.4452 24.1439 7.71348C27.8659 13.1073 33.0575 22.2068 36.4026 34.4891ZM24.1094 18.4288C21.9697 13.5437 20.9526 9.42312 20.9828 5.74954C23.4662 12.2033 28.6319 24.9529 34.737 36.0899C29.8715 30.9721 26.9879 24.9793 24.1094 18.4288ZM36.6629 46.6426C38.6495 47.5291 40.5858 48.4913 42.5231 49.5144C33.0373 46.682 19.0829 43.3215 7.61784 43.8659C11.0757 42.4237 15.0569 41.7696 19.2815 41.9737C24.5282 42.2316 30.0476 43.7174 36.6725 46.6565L36.6629 46.6426ZM48.3108 53.7085C35.8361 54.3956 16.516 48.9097 7.55996 46.1016C21.5761 45.4179 40.0395 50.941 48.3108 53.7085ZM27.2089 56.614C21.7116 55.3387 16.2727 53.6127 11.0427 51.4758C8.52436 50.4433 6.04046 49.2228 4.32976 47.4277C11.7481 49.881 34.5835 56.9222 48.9644 55.9047C42.4157 58.31 33.5904 58.1 27.195 56.6236L27.2089 56.614ZM72.7531 59.8667C71.5545 61.9661 69.2636 65.1886 66.342 65.8913C68.8929 63.105 77.9772 51.1109 79.6126 21.0066C81.7502 34.2451 79.4248 48.183 72.7392 59.8763L72.7531 59.8667Z" fill="#CFB7B7"/>
</svg>
