<svg width="334" height="74" viewBox="0 0 334 74" fill="none" xmlns="http://www.w3.org/2000/svg">
<path d="M64.36 52.28C64.9467 52.28 65.4267 52.4933 65.8 52.92C66.2267 53.3467 66.4133 53.8533 66.36 54.44C66.36 55.0267 66.1467 55.5067 65.72 55.88C62.9467 58.5467 59.8533 60.6 56.44 62.04C53.0267 63.4267 49.56 64.1733 46.04 64.28C42.5733 64.3867 39.16 64.12 35.8 63.48C32.4933 62.7867 29.2133 61.7467 25.96 60.36C25.16 60.04 24.36 60.0667 23.56 60.44C22.76 60.8133 22.2267 61.4267 21.96 62.28C21.48 64.0933 20.76 65.8 19.8 67.4C18.84 69.2133 17.48 70.68 15.72 71.8C13.96 72.92 12.04 73.5067 9.96 73.56C9.21333 73.56 8.49333 73.5067 7.8 73.4L7 73.08C2.46667 70.6267 1.08 64.04 2.84 53.32C3.8 47.4 5.64 40.7333 8.36 33.32C11.08 25.8533 14.1733 19.2667 17.64 13.56C21.16 7.8 24.28 4.70667 27 4.28C28.12 3.96 29.1867 4.03999 30.2 4.51999C31.2667 4.99999 32.04 5.74666 32.52 6.75999C33.5333 8.89333 33.1333 12.52 31.32 17.64C29.5067 22.76 27.0267 28.0133 23.88 33.4C20.7333 38.7333 17.5333 43.72 14.28 48.36C11.0267 52.9467 8.49333 56.0667 6.68 57.72C6.62667 57.7733 6.57333 57.8267 6.52 57.88C6.25333 60.2267 6.28 62.5733 6.6 64.92C6.86667 66.68 7.8 67.88 9.4 68.52C11.0533 69.16 12.5733 68.9467 13.96 67.88C14.8667 67.1333 15.64 66.2267 16.28 65.16C17.3467 63.3467 18.04 61.4 18.36 59.32C18.5733 57.56 17.96 56.2267 16.52 55.32C15.72 54.7867 14.9733 54.2533 14.28 53.72C13.64 53.24 13.3733 52.6 13.48 51.8C13.5867 50.9467 14.04 50.3867 14.84 50.12C15.9067 49.64 17 49.5333 18.12 49.8C19.2933 50.0667 20.2533 50.6533 21 51.56C21.5333 52.2533 21.9333 53.0267 22.2 53.88C25.2933 55.64 28.4933 57.0533 31.8 58.12C35.16 59.1333 38.6533 59.8 42.28 60.12C45.96 60.3867 49.5867 59.9333 53.16 58.76C56.7867 57.5333 60.0133 55.56 62.84 52.84C63.2667 52.4667 63.7733 52.28 64.36 52.28ZM27.64 8.44C26.2533 8.65333 24.3333 10.68 21.88 14.52C19.48 18.3067 16.9733 23.2667 14.36 29.4C11.8 35.48 9.8 41.4533 8.36 47.32C8.25333 47.6933 8.36 47.96 8.68 48.12C9.05333 48.28 9.34667 48.2 9.56 47.88C13.4533 42.4933 17.0267 36.92 20.28 31.16C22.84 26.68 24.8133 22.7333 26.2 19.32C27.64 15.8533 28.4933 13.3467 28.76 11.8C29.0267 10.2533 29.0267 9.18666 28.76 8.59999C28.7067 8.44 28.52 8.36 28.2 8.36C27.9867 8.36 27.8 8.38666 27.64 8.44ZM116.413 51.88C116.999 51.88 117.506 52.0933 117.933 52.52C118.359 52.8933 118.573 53.3733 118.573 53.96C118.573 54.5467 118.359 55.0533 117.933 55.48C117.239 56.12 116.413 56.8667 115.453 57.72C114.546 58.5733 112.733 60.04 110.013 62.12C107.346 64.2 104.706 66.0133 102.093 67.56C99.5325 69.1067 96.4925 70.52 92.9725 71.8C89.5058 73.0267 86.2525 73.64 83.2125 73.64C81.2392 73.64 79.3192 73.3733 77.4525 72.84C73.9858 71.8267 71.0792 69.7467 68.7325 66.6C66.4392 63.4 64.7592 59.2933 63.6925 54.28C63.5858 54.0133 63.5325 53.7467 63.5325 53.48C63.0525 50.8667 62.7325 48.2267 62.5725 45.56C62.2525 39.8 62.5725 33.72 63.5325 27.32C64.4925 20.92 66.0125 15.24 68.0925 10.28C70.1725 5.32 72.5192 2.28 75.1325 1.16C76.2525 0.679995 77.4258 0.599996 78.6525 0.919998C79.8792 1.24 80.8658 1.88 81.6125 2.84C82.7325 4.01333 83.3458 5.77333 83.4525 8.12C83.6125 10.4667 83.3192 13.16 82.5725 16.2C81.8792 19.24 81.0258 22.3333 80.0125 25.48C79.0525 28.6267 77.8258 31.9333 76.3325 35.4C74.8392 38.8667 73.5325 41.8 72.4125 44.2C71.3458 46.6 70.2525 48.9467 69.1325 51.24C68.2792 53 68.1192 54.7867 68.6525 56.6C70.6258 63.32 73.9592 67.4 78.6525 68.84C80.1458 69.48 81.8525 69.6933 83.7725 69.48C85.7458 69.2133 87.5592 68.92 89.2125 68.6C90.9192 68.2267 92.7325 67.56 94.6525 66.6C96.6258 65.64 98.3592 64.76 99.8525 63.96C101.399 63.1067 102.999 62.0933 104.653 60.92C106.359 59.6933 107.746 58.6533 108.813 57.8C109.879 56.9467 110.946 56.0667 112.013 55.16C113.079 54.2 113.773 53.56 114.093 53.24C114.466 52.92 114.759 52.6533 114.973 52.44C115.399 52.0667 115.879 51.88 116.413 51.88ZM67.0525 44.36C67.1058 44.7333 67.2925 45 67.6125 45.16C67.9325 45.2667 68.1992 45.16 68.4125 44.84C69.8525 42.5467 71.5592 38.4933 73.5325 32.68C75.5592 26.8133 77.1325 21.1067 78.2525 15.56C79.4258 10.0133 79.5325 6.73333 78.5725 5.72C78.0925 5.18667 77.6392 4.92 77.2125 4.92C77.0525 4.92 76.8925 4.94667 76.7325 5C75.3992 5.58666 73.7992 8.17333 71.9325 12.76C70.0658 17.2933 68.5725 22.6533 67.4525 28.84C66.3858 35.0267 66.2525 40.2 67.0525 44.36ZM183.547 49.96C184.134 49.9067 184.64 50.0933 185.067 50.52C185.494 50.8933 185.707 51.3733 185.707 51.96C185.707 52.5467 185.52 53.0533 185.147 53.48C182.267 56.4667 178.774 59.4533 174.667 62.44C170.614 65.3733 166 67.96 160.827 70.2C155.654 72.3867 150.987 73.48 146.827 73.48H146.667C142.027 73.64 138.134 72.04 134.987 68.68C133.654 67.1867 132.854 65.4533 132.587 63.48C132.48 62.7333 132.054 62.2533 131.307 62.04C130.614 61.8267 130 61.9867 129.467 62.52C123.12 69.1333 118.134 71.3467 114.507 69.16C113.227 68.4133 112.48 67.2133 112.267 65.56C112 63.8533 112.214 61.96 112.907 59.88C113.6 57.8 114.32 55.9867 115.067 54.44C115.76 52.8933 116.534 51.3467 117.387 49.8C117.707 49.32 118.134 49.0267 118.667 48.92C119.2 48.76 119.707 48.8133 120.187 49.08C120.667 49.3467 120.987 49.7467 121.147 50.28C121.307 50.8133 121.28 51.3467 121.067 51.88C119.787 54.0667 118.72 56.2267 117.867 58.36C117.067 60.4933 116.587 62.1467 116.427 63.32C116.32 64.44 116.4 65.1867 116.667 65.56C118 66.36 120.48 65.08 124.107 61.72C127.787 58.36 131.227 54.3333 134.427 49.64C134.747 49.16 135.147 48.8667 135.627 48.76C136.16 48.6533 136.667 48.7333 137.147 49C137.627 49.2133 137.947 49.56 138.107 50.04C138.32 50.52 138.347 51 138.187 51.48C137.76 52.7067 137.36 54.1467 136.987 55.8C136.667 57.4 136.534 59.24 136.587 61.32C136.694 63.4 137.174 64.92 138.027 65.88C140.427 68.28 143.307 69.4267 146.667 69.32H146.827C150.56 69.32 154.8 68.2533 159.547 66.12C164.347 63.9867 168.64 61.56 172.427 58.84C176.267 56.0667 179.467 53.32 182.027 50.6C182.454 50.1733 182.96 49.96 183.547 49.96ZM268.039 52.2C268.625 52.1467 269.132 52.3067 269.559 52.68C270.039 53.0533 270.305 53.5333 270.359 54.12C270.412 54.6533 270.279 55.16 269.959 55.64C269.532 56.1733 268.919 56.8667 268.119 57.72C267.372 58.5733 265.985 59.9067 263.959 61.72C261.932 63.5333 259.852 65.16 257.719 66.6C255.585 68.04 252.999 69.32 249.959 70.44C246.972 71.56 244.065 72.12 241.239 72.12C237.239 72.12 233.532 71.1067 230.119 69.08C227.132 67.16 224.999 64.5733 223.719 61.32C222.919 59.6133 222.279 58.5467 221.799 58.12C221.319 57.64 220.625 57.48 219.719 57.64C218.652 57.8 216.812 59.1333 214.199 61.64C211.639 64.0933 209.585 66.6267 208.039 69.24C207.452 70.2 206.625 70.52 205.559 70.2C204.545 69.88 204.065 69.16 204.119 68.04C204.279 64.84 203.825 62.1467 202.759 59.96C201.745 57.7733 200.625 56.6 199.399 56.44C198.705 56.3333 197.905 56.4133 196.999 56.68C196.145 56.9467 194.999 57.5333 193.559 58.44C192.119 59.2933 190.332 60.7867 188.199 62.92C186.065 65 183.745 67.64 181.239 70.84C180.545 71.6933 179.692 71.88 178.679 71.4C177.665 70.92 177.292 70.1467 177.559 69.08L181.399 52.2C181.505 51.6133 181.799 51.16 182.279 50.84C182.812 50.52 183.345 50.44 183.879 50.6C184.465 50.7067 184.919 51.0267 185.239 51.56C185.559 52.04 185.639 52.5467 185.479 53.08C184.465 57.4533 183.959 59.7467 183.959 59.96C183.905 60.2267 183.985 60.4133 184.199 60.52C184.465 60.6267 184.705 60.5467 184.919 60.28C187.105 58.1467 189.105 56.4667 190.919 55.24C192.732 53.96 194.305 53.16 195.639 52.84C196.972 52.52 198.012 52.36 198.759 52.36C199.505 52.36 200.359 52.4667 201.319 52.68C202.972 53.4267 204.359 54.52 205.479 55.96C206.652 57.4 207.372 59.0267 207.639 60.84C207.692 61.1067 207.852 61.2933 208.119 61.4C208.439 61.4533 208.679 61.3733 208.839 61.16C210.652 59.1333 212.492 57.4 214.359 55.96C216.225 54.52 217.799 53.6933 219.079 53.48C220.252 53.32 221.292 53.3733 222.199 53.64C223.159 53.8533 223.985 54.3333 224.679 55.08C225.372 55.8267 225.879 56.4933 226.199 57.08C226.572 57.6133 226.999 58.3867 227.479 59.4C228.439 61.9067 230.012 63.9067 232.199 65.4C234.439 66.7333 236.785 67.5067 239.239 67.72C241.745 67.9333 244.039 67.7733 246.119 67.24C248.252 66.6533 250.412 65.7733 252.599 64.6C254.785 63.3733 256.625 62.1733 258.119 61C259.665 59.8267 261.159 58.5467 262.599 57.16C264.039 55.7733 264.999 54.8133 265.479 54.28C266.012 53.7467 266.412 53.32 266.679 53C266.999 52.52 267.452 52.2533 268.039 52.2ZM331.698 51.64C332.284 51.6933 332.764 51.96 333.138 52.44C333.511 52.8667 333.671 53.3733 333.618 53.96C333.564 54.5467 333.298 55.0267 332.818 55.4C332.018 56.04 331.031 56.7867 329.858 57.64C328.684 58.4933 326.418 59.9333 323.058 61.96C319.698 63.9333 316.338 65.6667 312.977 67.16C309.671 68.6533 305.671 70.0133 300.978 71.24C296.284 72.4667 291.804 73.08 287.538 73.08C282.098 73.1333 276.871 72.1467 271.858 70.12C270.258 69.48 268.898 68.7333 267.778 67.88C266.711 66.9733 265.911 66.12 265.377 65.32C264.844 64.4667 264.471 63.5867 264.257 62.68C263.991 61.72 263.884 60.8933 263.937 60.2C263.937 59.5067 264.017 58.8133 264.177 58.12C264.764 55.6133 266.151 53.1333 268.338 50.68C270.524 48.2267 272.951 46.3067 275.618 44.92C278.338 43.5333 280.764 42.8933 282.898 43C284.338 43 285.564 43.5067 286.578 44.52C287.644 45.5333 288.231 46.7867 288.338 48.28C288.604 50.84 287.164 53.16 284.018 55.24C279.484 58.0667 274.524 59.32 269.138 59C268.871 58.9467 268.631 59 268.418 59.16C268.204 59.32 268.124 59.5333 268.178 59.8C267.804 62.52 269.564 64.6533 273.458 66.2C276.924 67.64 280.658 68.4933 284.658 68.76C288.658 68.9733 292.391 68.76 295.858 68.12C299.324 67.48 302.871 66.4933 306.498 65.16C310.124 63.8267 313.218 62.4933 315.778 61.16C318.391 59.7733 320.898 58.3333 323.298 56.84C325.751 55.2933 327.404 54.2 328.258 53.56C329.164 52.92 329.804 52.44 330.178 52.12C330.658 51.7467 331.164 51.5867 331.698 51.64ZM270.978 54.12C270.284 55.08 270.578 55.5067 271.858 55.4C274.098 55.24 276.951 54.28 280.418 52.52C280.951 52.2 281.404 51.9333 281.778 51.72C283.431 50.6 284.204 49.5867 284.098 48.68C284.044 48.0933 283.911 47.72 283.698 47.56C283.484 47.3467 283.138 47.2133 282.658 47.16C280.951 47.0533 278.951 47.6667 276.658 49C274.418 50.3333 272.524 52.04 270.978 54.12Z" fill="#303030"/>
</svg>
